<svg width="324" height="102" viewBox="0 0 324 102" fill="none" xmlns="http://www.w3.org/2000/svg">
<path d="M56.0766 32.4873H45.6608V33.0711C46.494 33.0711 47.1711 33.3046 47.1711 34.2386V54.4374H38.3176V34.2386C38.3176 33.3046 38.9946 33.0711 39.8279 33.0711V32.4873H29.412V33.0711C31.1827 33.0711 31.9118 33.363 31.9118 34.297V75.2198C31.9118 76.0955 31.1827 76.4458 29.412 76.4458V77.0296H39.8279V76.4458C38.9946 76.4458 38.3176 76.2123 38.3176 75.2782V55.0795H47.1711V75.2782C47.1711 76.2123 46.494 76.4458 45.6608 76.4458V77.0296H56.0766V76.4458C54.3059 76.4458 53.5768 76.0955 53.5768 75.2198V34.297C53.5768 33.363 54.3059 33.0711 56.0766 33.0711V32.4873Z" fill="black"/>
<path d="M80.324 57.7067C80.324 45.9143 74.1266 43.696 70.2727 43.6376C66.3668 43.5208 60.7943 45.9143 60.4818 51.5186C60.3256 54.4959 61.7317 55.897 63.1899 56.1304C64.9606 56.5975 66.5751 55.1964 66.7834 53.4451C67.148 51.9856 66.5751 50.8765 65.9501 50.2343C64.8565 49.1251 64.4919 48.7749 64.5961 47.6073C64.8565 45.5057 67.2521 44.2798 70.1165 44.2798C74.1787 44.2798 76.991 47.3738 76.991 51.6938C76.991 54.671 75.7931 56.3056 73.8662 56.8894C73.1371 57.1813 71.8872 57.1813 70.8456 57.298C63.9711 57.4731 58.8673 60.4504 58.8153 67.5725C58.7632 73.6438 63.3982 77.2632 68.0854 77.0881C70.481 77.0297 72.3038 76.2708 73.9183 74.4611C74.3349 76.5627 75.7931 77.0881 77.1993 76.9713L82.0427 76.4459V75.7454C80.8969 75.7454 80.324 75.5119 80.324 73.2352V57.7067ZM70.6894 75.8038C68.0854 76.0957 64.7523 73.5854 64.7002 66.9303C64.7002 61.1509 67.5125 58.1737 71.6268 57.8234C72.4601 57.6483 73.8662 57.4731 73.8662 58.0569V72.593C73.8662 74.1108 72.3038 75.5703 70.6894 75.8038Z" fill="black"/>
<path d="M89.799 41.9445C91.3614 41.9445 92.7155 40.4267 92.7155 38.5586C92.7155 36.8073 91.3614 35.2894 89.799 35.2894C88.0804 35.2894 86.7784 36.8073 86.7784 38.5586C86.7784 40.4267 88.0804 41.9445 89.799 41.9445ZM95.007 77.0296V76.4458C93.8612 76.4458 93.1321 76.0955 93.1321 75.2198V43.7542C90.8927 46.2061 87.9762 47.2569 84.7473 47.2569V47.899C86.0493 47.899 86.7263 48.0158 86.7263 49.1834V75.2198C86.7263 76.0955 85.9972 76.4458 84.7473 76.4458V77.0296H95.007Z" fill="black"/>
<path d="M112.121 44.6883C108.996 44.6883 107.07 46.9067 106.132 49.7088V43.7543C103.684 46.1478 101.08 47.2569 97.7473 47.2569V47.8991C99.0493 47.8991 99.6743 48.0158 99.6743 49.1834V75.2199C99.6743 76.0956 98.8931 76.4458 97.7473 76.4458V77.0296H108.007V76.4458C106.757 76.4458 106.132 76.0956 106.132 75.2199V51.9855C106.549 48.5996 108.215 46.4396 110.142 46.031C111.08 45.7391 112.173 45.9726 112.33 46.7899C112.434 47.8991 111.184 49.0083 111.288 50.9347C111.392 53.3866 113.215 54.2039 114.621 54.2039C116.183 54.2039 117.746 52.9196 117.746 50.351C117.85 46.7315 115.298 44.6883 112.121 44.6883Z" fill="black"/>
<path d="M26.6646 32.4873H16.2488V33.0711C17.082 33.0711 17.7591 33.3046 17.7591 34.2386V54.4374H8.90558V34.2386C8.90558 33.3046 9.58261 33.0711 10.4159 33.0711V32.4873H0V33.0711C1.77071 33.0711 2.49981 33.363 2.49981 34.297V75.2198C2.49981 76.0955 1.77071 76.4458 0 76.4458V77.0296H10.4159V76.4458C9.58261 76.4458 8.90558 76.2123 8.90558 75.2782V55.0795H17.7591V75.2782C17.7591 76.2123 17.082 76.4458 16.2488 76.4458V77.0296H26.6646V76.4458C24.8939 76.4458 24.1648 76.0955 24.1648 75.2198V34.297C24.1648 33.363 24.8939 33.0711 26.6646 33.0711V32.4873Z" fill="black"/>
<path d="M167.418 79.1019C175.282 64.3907 179.657 47.5195 186.896 47.5195V45.6514H161.065V47.5195C169.085 47.5195 169.397 61.7637 164.294 75.3073C160.752 70.8123 156.898 66.142 152.524 61.0632C151.013 59.3702 149.451 57.4437 148.201 55.8675C156.43 46.7022 163.512 36.2526 163.512 23.7598C163.512 7.6475 153.93 0 145.128 0C136.275 0 124.505 6.42157 124.505 21.1911C124.505 30.3565 128.098 37.4785 135.806 46.8774C126.224 55.3421 117.11 64.5658 117.11 79.1019C117.11 98.0747 134.296 101.169 138.775 101.169C151.326 101.169 159.346 92.8207 165.387 82.7797C170.179 92.4704 169.397 99.9428 159.659 99.9428V101.344H189.865V99.9428C184.448 99.9428 177.313 91.3029 167.418 79.1019ZM132.89 20.3155C132.89 4.31995 140.493 0.700533 145.441 0.700533C152.992 0.700533 157.784 7.82263 157.784 15.0615C157.784 27.2624 148.982 35.3769 139.556 43.5498C134.452 34.5013 132.89 27.4376 132.89 20.3155ZM138.306 100.118C131.484 99.7676 124.661 96.4985 124.661 88.6759C124.661 78.9268 135.65 69.4112 146.066 58.1443L152.367 64.9161C156.742 69.4112 160.44 74.0814 163.096 78.6349C157.94 90.252 149.139 100.818 138.306 100.118Z" fill="black"/>
<path d="M200.445 53.2034C203.518 52.3861 208.57 49.8175 208.57 43.7462C208.57 34.3474 198.518 34.3474 195.55 34.3474H187.269V34.9312C188.936 34.9312 189.613 35.2231 189.613 36.0404V73.9276C189.613 74.7448 188.936 75.0367 187.269 75.0367V75.6205H195.55C201.018 75.6205 210.913 74.3946 211.121 64.2368C211.226 55.7721 204.559 53.437 200.445 53.2034ZM195.55 35.5733C195.55 35.5733 195.602 34.9312 196.279 34.9312C197.477 34.9312 203.882 34.5809 203.726 43.8046C203.622 53.2034 195.55 53.5537 195.55 53.5537V35.5733ZM196.175 75.0367C195.602 75.0367 195.55 74.2778 195.55 73.9859V54.1959C197.372 54.1959 205.236 53.6705 205.236 63.6531C205.236 73.6357 198.414 75.0367 196.175 75.0367Z" fill="black"/>
<path d="M233.298 59.0998C233.038 50.4015 229.497 44.7972 223.612 44.7972C219.81 44.7972 212.675 48.8253 212.675 60.0922C212.675 68.9657 217.05 75.6207 224.08 75.6207C227.257 75.6207 230.226 74.2196 232.778 68.2067C231.632 69.6078 229.757 72.5851 225.747 72.3516C220.122 71.9429 218.56 65.2295 218.56 59.1582L233.298 59.0998ZM223.768 45.3226C227.049 45.3226 228.507 50.7518 228.507 58.516H218.56C218.56 47.1907 222.258 45.3226 223.768 45.3226Z" fill="black"/>
<path d="M255.438 57.757C255.438 46.7819 249.709 44.7387 246.115 44.6803C242.522 44.622 237.314 46.7819 237.001 52.0359C236.897 54.7797 238.199 56.064 239.553 56.2391C241.168 56.7062 242.678 55.4219 242.886 53.7873C243.199 52.4446 242.678 51.3938 242.105 50.81C241.116 49.7592 240.751 49.4673 240.855 48.3581C241.116 46.4317 243.303 45.3225 245.959 45.3225C249.761 45.3225 252.313 48.1246 252.313 52.1527C252.313 54.8965 251.219 56.4143 249.448 56.9397C248.719 57.2316 247.626 57.2316 246.636 57.3483C240.282 57.5234 235.543 60.2672 235.491 66.8639C235.439 72.5266 239.71 75.8541 244.084 75.6789C246.272 75.6206 247.99 74.92 249.501 73.2271C249.865 75.2119 251.219 75.6789 252.521 75.5622L257 75.0368V74.3946C255.906 74.3946 255.438 74.2195 255.438 72.0595V57.757ZM246.48 74.5114C244.084 74.7449 241.012 72.4682 240.907 66.2801C240.907 60.9094 243.564 58.1656 247.365 57.8153C248.094 57.6986 249.448 57.5234 249.448 58.0489V71.5341C249.448 72.9352 247.99 74.2779 246.48 74.5114Z" fill="black"/>
<path d="M280.964 74.6283C279.819 74.6283 279.61 73.6359 279.61 72.1764V44.7972C277.631 46.9572 275.027 48.0664 271.798 48.0664V48.6502C272.996 48.6502 273.621 48.7669 273.621 49.8177V67.1559C273.517 70.3083 271.85 73.344 269.767 73.811C268.049 74.1613 267.268 72.4683 267.268 69.024V44.7972C265.341 46.9572 262.685 48.0664 259.508 48.0664V48.6502C260.706 48.6502 261.33 48.7669 261.33 49.8177V66.8057C261.33 72.2932 262.685 75.6207 267.268 75.6207C271.746 75.6207 273.569 70.8337 273.621 70.3083V72.1764C273.621 75.0369 275.236 75.6791 276.746 75.6791C277.631 75.6791 278.413 75.5623 281.329 75.2121V74.6283H280.964Z" fill="black"/>
<path d="M295.765 44.7387H291.339V34.3474H290.141C289.985 38.9009 288.474 42.4619 285.402 44.7387V65.2293C285.402 72.3514 288.318 75.6205 295.765 75.6205C292.172 73.8692 291.339 71.6508 291.339 63.0693V45.3808H295.765V44.7387Z" fill="black"/>
<path d="M319.194 45.381H319.819C320.548 45.381 320.861 45.4394 320.704 46.0232L313.934 70.9505L314.09 70.1916C313.361 72.4683 310.913 75.6207 309.403 72.1764C308.882 71.651 307.528 66.6305 306.33 61.4349L302.737 46.3151C302.529 45.381 303.414 45.381 304.456 45.381V44.7972H294.508V45.381C295.967 45.381 296.435 45.6729 296.644 46.607L302.112 69.491C303.154 73.6359 304.716 75.6207 308.362 75.6207C310.445 75.6207 312.111 74.6867 313.622 72.2348L312.632 75.6207C311.434 79.9991 309.768 86.7709 306.539 86.7709C303.883 86.7709 305.341 82.2174 301.643 81.5753C299.3 81.0498 297.529 83.0931 297.529 85.7201C297.529 88.7557 300.289 90.7989 302.737 90.7989C309.611 90.7989 311.903 81.1082 313.361 75.6207L321.433 46.0816C321.59 45.4394 322.006 45.381 322.683 45.381H323.1V44.7972H319.194V45.381Z" fill="black"/>
</svg>
