<svg width="81" height="114" viewBox="0 0 81 114" fill="none" xmlns="http://www.w3.org/2000/svg">
<path d="M22.01 0.625488H0V1.63738C4.23537 1.40387 6.31834 4.59526 6.31834 16.3489V60.717C6.31834 72.4317 4.23537 75.5453 0 75.3118V76.3237H22.01V75.3118C17.7747 75.5453 15.6917 72.4317 15.6917 60.717V44.0206C19.2327 38.2605 24.3013 41.2573 28.8144 43.0087C36.3131 46.0055 41.7635 44.3319 45.0268 36.0421V60.717C45.0268 72.4317 42.9439 75.5453 38.7085 75.3118V76.3237H60.8227V75.3118C56.4485 75.5453 54.4002 72.4317 54.4002 60.717V16.3489C54.4002 4.59526 56.4485 1.40387 60.8227 1.63738V0.625488H38.7085V1.63738C42.9439 1.40387 45.0268 4.59526 45.0268 16.3489V33.0453C41.4511 38.6886 36.4172 35.6918 31.8694 33.9405C24.3707 30.9437 19.0592 32.6172 15.6917 40.907V16.3489C15.6917 4.59526 17.7747 1.40387 22.01 1.63738V0.625488Z" fill="#F2F2E9"/>
<path d="M41.2541 38.2292H19.244V39.2411C23.4794 39.0076 25.5624 42.199 25.5624 53.9527V98.3208C25.5624 110.035 23.4794 113.149 19.244 112.916V113.927H41.2541V112.916C37.0187 113.149 34.9357 110.035 34.9357 98.3208V81.6243C38.4768 75.8643 43.5453 78.8611 48.0584 80.6124C55.5571 83.6092 61.0075 81.9357 64.2709 73.6459V98.3208C64.2709 110.035 62.1879 113.149 57.9525 112.916V113.927H80.0667V112.916C75.6925 113.149 73.6442 110.035 73.6442 98.3208V53.9527C73.6442 42.199 75.6925 39.0076 80.0667 39.2411V38.2292H57.9525V39.2411C62.1879 39.0076 64.2709 42.199 64.2709 53.9527V70.6491C60.6951 76.2924 55.6613 73.2956 51.1134 71.5442C43.6148 68.5474 38.3032 70.221 34.9357 78.5108V53.9527C34.9357 42.199 37.0187 39.0076 41.2541 39.2411V38.2292Z" fill="#F2F2E9"/>
</svg>
